<?xml version="1.0" encoding="UTF-8"?>
<svg version="1.1" xmlns="http://www.w3.org/2000/svg" width="648" height="435">
<path d="M0 0 C213.84 0 427.68 0 648 0 C648 143.55 648 287.1 648 435 C434.16 435 220.32 435 0 435 C0 291.45 0 147.9 0 0 Z " fill="#FBE597" transform="translate(0,0)"/>
<path d="M0 0 C213.84 0 427.68 0 648 0 C647.67 1.32 647.34 2.64 647 4 C646.44604824 3.9992201 645.89209649 3.99844019 645.32135831 3.99763666 C585.03120598 3.91293192 524.74104706 3.83440111 464.45085144 3.7882843 C463.55071944 3.78759402 462.65058743 3.78690373 461.7231787 3.78619253 C442.16240519 3.77122911 422.60163104 3.75737804 403.04085593 3.74467335 C393.44870525 3.73843649 383.85655473 3.73195375 374.2644043 3.7253418 C373.30985361 3.724688 372.35530293 3.72403421 371.37182646 3.7233606 C340.41409475 3.70204158 309.45640858 3.6644759 278.49870447 3.6185139 C246.69420829 3.57138028 214.88973732 3.54057961 183.0852068 3.53042505 C178.59636733 3.52898421 174.10752795 3.52735602 169.61868858 3.52561378 C168.29344452 3.52510811 168.29344452 3.52510811 166.94142785 3.52459222 C152.70105456 3.51867621 138.46075907 3.49546596 124.22041755 3.46583983 C109.91526572 3.43644607 95.61019128 3.42514941 81.3050103 3.43249311 C72.79873588 3.43630534 64.29274399 3.4260747 55.78652042 3.39601228 C50.11011134 3.37731576 44.43388807 3.37664404 38.75746636 3.39084093 C35.51926676 3.39841744 32.2817138 3.39521969 29.04354904 3.37558409 C25.56013443 3.35567974 22.07812934 3.36623263 18.59473896 3.38476086 C17.58269729 3.37162579 16.57065562 3.35849072 15.52794603 3.34495762 C11.03421432 3.39941643 8.67852928 3.54488991 4.87680501 6.09482127 C2.54612082 9.70257705 2.3754543 11.81477828 2.37638092 16.09809875 C2.36971291 16.80473345 2.3630449 17.51136814 2.35617483 18.239416 C2.33989696 20.61370273 2.35933341 22.98635017 2.37854004 25.3605957 C2.3742122 27.07727114 2.36769725 28.79394223 2.35917997 30.510602 C2.34215068 35.23289221 2.35639594 39.95465403 2.37569475 44.6769166 C2.39109306 49.76765425 2.37772731 54.85832595 2.36795044 59.94906616 C2.3534065 69.92377185 2.36567543 79.89827435 2.38706368 89.87296081 C2.41104656 101.48281146 2.40936098 113.09261528 2.40675777 124.7024852 C2.40306556 145.41400376 2.42391073 166.12542643 2.45800781 186.83691406 C2.49110045 206.94566268 2.50526633 227.05431064 2.49902344 247.16308594 C2.49226283 269.04714005 2.49471028 290.93115197 2.51438284 312.81519985 C2.51594207 314.55026493 2.51594207 314.55026493 2.5175328 316.32038182 C2.51962373 318.64373596 2.52173471 320.96709009 2.52386597 323.2904442 C2.53076811 331.38785706 2.53142979 339.48525693 2.52998352 347.58267212 C2.52854535 357.44738199 2.53820661 367.31200967 2.56192988 377.17669225 C2.5738082 382.21219278 2.58090285 387.2475786 2.57509232 392.2830925 C2.56993382 396.88956879 2.5785614 401.49580239 2.59836692 406.10223711 C2.60312038 407.77174164 2.60278932 409.44126971 2.59695655 411.11077082 C2.58980902 413.37477205 2.60100049 415.63796163 2.61688995 417.90190125 C2.61846116 419.16100154 2.62003236 420.42010183 2.62165117 421.71735668 C3.03456891 425.299928 3.8268582 427.15042664 6 430 C9.15491988 432.10327992 9.87368572 432.24980478 13.46988219 432.24839699 C14.39257766 432.25289158 15.31527313 432.25738617 16.26592907 432.26201695 C17.28322477 432.25676292 18.30052046 432.2515089 19.3486433 432.24609566 C20.97214178 432.24955719 20.97214178 432.24955719 22.6284382 432.25308865 C26.29224402 432.25842536 29.95587762 432.24937415 33.61967468 432.24050903 C36.25801586 432.24138035 38.8963456 432.2430453 41.53468448 432.24568737 C47.28997323 432.24984177 53.04522071 432.24653552 58.80050468 432.23841095 C67.35845503 432.22636341 75.91637923 432.22573724 84.47433651 432.22749493 C98.86869385 432.23012567 113.26303286 432.22342877 127.65738487 432.21146011 C141.91456887 432.19963583 156.17174523 432.1919302 170.4289341 432.18975449 C171.31460347 432.18961701 172.20027284 432.18947953 173.11278068 432.18933788 C177.6104425 432.18866124 182.10810432 432.18805846 186.60576615 432.18748413 C218.48270673 432.18328061 250.35963732 432.16979837 282.23657227 432.15087891 C313.20922797 432.13251733 344.18188096 432.11834653 375.15454102 432.10986328 C376.58600174 432.1094687 376.58600174 432.1094687 378.04638086 432.10906615 C387.62971453 432.10642917 397.21304823 432.10387753 406.79638194 432.10138843 C426.31964316 432.09631568 445.8429042 432.09067317 465.36616516 432.08468628 C466.26386071 432.0844117 467.16155627 432.08413712 468.08645471 432.08385422 C528.05764063 432.06544539 588.028821 432.03375412 648 432 C648 432.99 648 433.98 648 435 C434.16 435 220.32 435 0 435 C0 291.45 0 147.9 0 0 Z " fill="#FEFDFA" transform="translate(0,0)"/>
<path d="M0 0 C11.07105934 0.04358685 19.83129941 3.66808104 27.9375 11.25 C36.19496541 20.12190476 38.46852812 29.37155626 38.33203125 41.234375 C37.36688822 52.1802324 32.28469976 60.91895059 24 68 C16.52706026 73.11306403 9.1227187 76.15674774 0 76 C-0.07476562 75.26136719 -0.14953125 74.52273437 -0.2265625 73.76171875 C-1.56403296 63.44221626 -5.25454319 54.64399666 -13.01953125 47.49609375 C-19.03895715 42.94887458 -25.67176563 40.49278848 -33 39 C-33 38.34 -33 37.68 -33 37 C-32.154375 36.78085938 -31.30875 36.56171875 -30.4375 36.3359375 C-18.41991039 32.97647495 -9.95042938 27.32282128 -3.75 16.3125 C-1.31572822 11.17010087 -0.70876775 5.59553485 0 0 Z " fill="#37506B" transform="translate(366,125)"/>
<path d="M0 0 C0.21914063 1.05058594 0.43828125 2.10117188 0.6640625 3.18359375 C2.48337341 11.42845146 4.25770548 18.53321038 10 25 C10.55171875 25.62132812 11.1034375 26.24265625 11.671875 26.8828125 C17.41663408 32.55392082 24.59200778 35.15957602 32 38 C32 38.33 32 38.66 32 39 C31.09121094 39.20302734 31.09121094 39.20302734 30.1640625 39.41015625 C20.44005093 41.90847922 11.45428114 47.36405486 6 56 C2.6824751 62.52686965 0.42253065 68.67613537 0 76 C-11.55144191 75.75842992 -19.6129434 72.06686792 -28.02734375 64.171875 C-31.11510788 60.77227726 -33.11720751 57.16429397 -35 53 C-35.31839844 52.37609375 -35.63679687 51.7521875 -35.96484375 51.109375 C-39.73637541 42.8363378 -38.97677575 32.76341395 -36.03125 24.3359375 C-31.48306073 14.03359967 -23.60147502 5.83484318 -13.06640625 1.67578125 C-8.65462135 0.23298581 -4.59982935 -0.03087134 0 0 Z " fill="#37506B" transform="translate(289,125)"/>
<path d="M0 0 C0.66 0.33 1.32 0.66 2 1 C2.2475 2.11375 2.495 3.2275 2.75 4.375 C4.93232859 13.72543867 9.97820187 21.68901641 18 27 C24.58571905 30.74100017 30.44542485 32.62846352 38 33 C38.8546753 43.25610356 35.47202727 51.47416248 28.9375 59.375 C22.16945737 66.43878903 13.008035 71.04414983 3.19897461 71.29248047 C-8.43111039 71.39543491 -17.28763637 69.17010033 -26 61 C-33.74837661 52.47367393 -37.22736946 44.59584234 -37 33 C-36.17757813 32.92523438 -35.35515625 32.85046875 -34.5078125 32.7734375 C-23.82458841 31.51513628 -15.92783235 27.88294942 -8.53125 19.98046875 C-3.91892151 14.01503369 -1.49032652 7.31614838 0 0 Z " fill="#37506B" transform="translate(327,168)"/>
<path d="M0 0 C2.05604287 1.45013633 3.8529159 2.98099305 5.67578125 4.71484375 C6.37574219 5.37484375 7.07570313 6.03484375 7.796875 6.71484375 C14.01410521 13.10319039 17.86172028 20.33771704 17.92578125 29.40234375 C17.84328125 30.49546875 17.76078125 31.58859375 17.67578125 32.71484375 C16.55042969 32.95267578 16.55042969 32.95267578 15.40234375 33.1953125 C4.90747335 35.58771998 -4.61722886 38.86367551 -11.32421875 47.71484375 C-14.7334622 53.40001266 -17.12965792 59.47767087 -19.32421875 65.71484375 C-21.21250157 62.88241953 -22.04431464 60.72998416 -23.07421875 57.52734375 C-26.43290079 48.20177237 -31.5351727 42.34282581 -40.32421875 37.71484375 C-45.83039418 35.32118693 -51.32362528 33.36355656 -57.32421875 32.71484375 C-57.28526237 21.55383974 -54.16819178 13.56536424 -46.57421875 5.33984375 C-33.52542934 -6.83569971 -15.49998819 -8.57058171 0 0 Z " fill="#37506B" transform="translate(347.32421875,91.28515625)"/>
<path d="M0 0 C3.96 0 7.92 0 12 0 C12 21.12 12 42.24 12 64 C8.04 64 4.08 64 0 64 C-0.33 63.01 -0.66 62.02 -1 61 C-1.721875 61.474375 -2.44375 61.94875 -3.1875 62.4375 C-8.87793643 65.59885357 -15.30706998 65.98515664 -21.5625 64.31640625 C-28.90805255 61.68206374 -31.79849157 58.64387602 -35.8125 52 C-38.52055096 44.99641994 -38.16097231 35.92607183 -35.4375 29 C-32.5646504 23.50989241 -27.76714144 19.27786556 -22 17 C-14.7755968 16.27283785 -8.37488034 16.3779089 -2 20 C-1.67 20.33 -1.34 20.66 -1 21 C-0.67 14.07 -0.34 7.14 0 0 Z " fill="#39516B" transform="translate(456,262)"/>
<path d="M0 0 C15.51 0 31.02 0 47 0 C47 3.96 47 7.92 47 12 C35.78 12 24.56 12 13 12 C13 16.62 13 21.24 13 26 C22.9 26 32.8 26 43 26 C43 29.63 43 33.26 43 37 C33.1 37 23.2 37 13 37 C13 41.62 13 46.24 13 51 C24.22 51 35.44 51 47 51 C47 54.63 47 58.26 47 62 C31.49 62 15.98 62 0 62 C0 41.54 0 21.08 0 0 Z " fill="#3B526C" transform="translate(136,264)"/>
<path d="M0 0 C5.84262225 3.07112195 10.60447989 6.64123881 13.359375 12.81640625 C15.44387949 20.21639719 15.32708063 27.96760689 11.6875 34.8125 C7.57858301 40.75086337 1.21278117 45.00252482 -5.9375 46.3125 C-13.63869183 47.20457354 -19.26889958 46.56890929 -25.7421875 42.15625 C-31.4665283 37.34861858 -35.16788773 31.76304173 -36.22265625 24.29296875 C-36.67091908 17.72994118 -34.58912202 12.70735867 -30.9375 7.3125 C-28.80409552 4.95087085 -26.55946797 3.10585507 -23.9375 1.3125 C-22.638125 0.384375 -22.638125 0.384375 -21.3125 -0.5625 C-14.41173144 -2.86275619 -6.75075087 -2.81471985 0 0 Z " fill="#3A526C" transform="translate(281.9375,280.6875)"/>
<path d="M0 0 C3.6814767 1.73931957 5.60914039 3.64029255 7.68188477 7.12890625 C10.04678422 13.88084061 9.18154776 21.44087491 9 28.5 C8.97488817 30.19788387 8.95208008 31.89580346 8.93164062 33.59375 C8.87686688 37.73005668 8.79075713 41.86463117 8.6875 46 C4.7275 46 0.7675 46 -3.3125 46 C-3.32708252 45.11739502 -3.34166504 44.23479004 -3.35668945 43.32543945 C-3.41792067 40.03561357 -3.4921033 36.7466007 -3.57495117 33.45727539 C-3.60810557 32.03648798 -3.63616692 30.61557187 -3.65893555 29.19458008 C-3.69265847 27.1460918 -3.74497745 25.0987728 -3.80078125 23.05078125 C-3.82696533 21.82012939 -3.85314941 20.58947754 -3.88012695 19.3215332 C-4.34167967 15.77583884 -5.18240533 13.84220458 -7.3125 11 C-9.14265524 10.01433839 -9.14265524 10.01433839 -11.1875 9.875 C-11.84492188 9.76929688 -12.50234375 9.66359375 -13.1796875 9.5546875 C-16.67043849 10.28352562 -18.08816147 12.29993458 -20.3125 15 C-21.08669007 18.46504717 -21.08669007 18.46504717 -21.01953125 22.26953125 C-21.03465256 22.95053391 -21.04977386 23.63153656 -21.06535339 24.33317566 C-21.10810078 26.49329063 -21.11705435 28.65200493 -21.125 30.8125 C-21.14815489 32.28324002 -21.17352231 33.75394698 -21.20117188 35.22460938 C-21.2638916 38.81637971 -21.29633125 42.40768404 -21.3125 46 C-25.6025 46 -29.8925 46 -34.3125 46 C-34.3125 30.82 -34.3125 15.64 -34.3125 0 C-30.0225 0 -25.7325 0 -21.3125 0 C-20.9825 0.66 -20.6525 1.32 -20.3125 2 C-19.52875 1.505 -18.745 1.01 -17.9375 0.5 C-12.02937444 -1.94474161 -6.12728134 -1.78374542 0 0 Z " fill="#3A526B" transform="translate(399.3125,280)"/>
<path d="M0 0 C1.36297002 0.95921349 2.70575718 1.94989844 4 3 C2.44499019 6.81684226 -0.03595495 9.19195732 -3 12 C-3.969375 11.505 -4.93875 11.01 -5.9375 10.5 C-10.28728381 8.60142633 -14.33030204 8.71410012 -19 9 C-19.33 10.32 -19.66 11.64 -20 13 C-19.45585449 13.12528076 -18.91170898 13.25056152 -18.35107422 13.37963867 C-15.85460712 13.96487256 -13.36513789 14.57591921 -10.875 15.1875 C-10.0190625 15.38408203 -9.163125 15.58066406 -8.28125 15.78320312 C-2.63864001 17.19385562 0.91688744 18.8060042 5 23 C6.45667817 27.3700345 6.86982886 31.61269796 5.28125 35.97265625 C3.20004242 39.92527225 1.05089302 42.17709814 -3 44 C-11.55015183 46.64960749 -20.46193514 45.37231931 -28.66015625 42.265625 C-31.27249899 40.85260489 -33.00982721 39.18781119 -35 37 C-33.02 34.36 -31.04 31.72 -29 29 C-24 31 -24 31 -21.75 32.125 C-17.46759409 33.4875837 -12.11511833 34.05755917 -8 32 C-8 30.68 -8 29.36 -8 28 C-9.01320313 27.81824219 -10.02640625 27.63648438 -11.0703125 27.44921875 C-12.42196353 27.19578418 -13.77352119 26.94185135 -15.125 26.6875 C-15.79015625 26.56955078 -16.4553125 26.45160156 -17.140625 26.33007812 C-23.48838113 25.11653651 -29.02033566 23.15412468 -33.078125 17.87109375 C-34.97393275 14.02324665 -34.82683638 10.13418192 -34 6 C-32.0124935 1.80609861 -28.49073764 -0.94251321 -24.140625 -2.53125 C-16.0387183 -4.30539015 -7.56755637 -3.33136992 0 0 Z " fill="#3B526C" transform="translate(513,282)"/>
<path d="M0 0 C5.4878975 2.53544201 9.85742162 5.93996878 13.0703125 11.125 C13.0703125 11.785 13.0703125 12.445 13.0703125 13.125 C6.13233507 16.172201 6.13233507 16.172201 2.2578125 16 C-0.12232634 15.04794446 -1.21693141 13.99346119 -2.9296875 12.125 C-7.43528391 10.62313453 -11.27182087 10.40910305 -15.6796875 12.3125 C-19.43879634 15.34067101 -20.77931769 17.74661003 -21.3046875 22.5625 C-20.78289299 27.51954782 -19.5661462 30.72232112 -15.7421875 34 C-12.0765985 35.4662356 -8.78814638 35.83756412 -4.9296875 35.125 C-1.69207616 33.27249996 -1.69207616 33.27249996 1.0703125 31.125 C4.3390678 29.89251849 6.13255643 30.2342683 9.3203125 31.5625 C10.37992188 31.99369141 10.37992188 31.99369141 11.4609375 32.43359375 C11.99203125 32.66175781 12.523125 32.88992188 13.0703125 33.125 C11.36559961 39.56502646 6.36101645 42.77752709 0.8828125 46 C-6.37821356 48.14259785 -14.19758607 48.23199484 -21.19140625 45.08984375 C-27.4622924 41.60914964 -31.61846037 36.9509547 -33.9296875 30.125 C-35.01963743 22.52172027 -34.8407531 15.57868156 -30.55859375 9.02734375 C-27.77349501 5.77472244 -24.5798012 3.33828962 -20.9296875 1.125 C-20.32511719 0.75117188 -19.72054687 0.37734375 -19.09765625 -0.0078125 C-13.31594776 -2.3204959 -5.86677131 -1.75220903 0 0 Z " fill="#3A526B" transform="translate(226.9296875,279.875)"/>
<path d="M0 0 C0 3.3 0 6.6 0 10 C-4.455 10.495 -4.455 10.495 -9 11 C-9.66 12.98 -10.32 14.96 -11 17 C-8.36 17 -5.72 17 -3 17 C-3 20.63 -3 24.26 -3 28 C-5.64 28 -8.28 28 -11 28 C-11 39.55 -11 51.1 -11 63 C-15.29 63 -19.58 63 -24 63 C-24 51.45 -24 39.9 -24 28 C-25.65 28 -27.3 28 -29 28 C-29 24.7 -29 21.4 -29 18 C-27.35 18 -25.7 18 -24 18 C-24.103125 17.01 -24.20625 16.02 -24.3125 15 C-24.29255956 10.08468075 -22.1334326 6.6662752 -19 3 C-14.0523064 -1.48306247 -6.11867298 -3.05933649 0 0 Z " fill="#3D546C" transform="translate(333,263)"/>
<path d="M0 0 C4.29 0 8.58 0 13 0 C13 15.18 13 30.36 13 46 C8.71 46 4.42 46 0 46 C0 30.82 0 15.64 0 0 Z " fill="#3C536C" transform="translate(340,280)"/>
<path d="M0 0 C3.22916644 2.75428902 4.89144202 4.87044941 5.41015625 9.18359375 C5.578543 14.11073643 5.58674186 18.00458395 2.125 21.8125 C-2.25076915 24.69652967 -5.67599864 25.46237517 -10.875 24.8125 C-15.21182792 22.5606855 -18.04427416 20.38931459 -19.875 15.8125 C-20.59388663 11.01992246 -20.34143542 7.72871244 -18.125 3.375 C-13.2841264 -2.13821715 -6.65802215 -2.75005263 0 0 Z " fill="#F7E398" transform="translate(450.875,291.1875)"/>
<path d="M0 0 C3.20824247 1.49717982 5.72932114 3.27518536 8 6 C9.24283781 9.72851342 9.5280726 13.12746761 9 17 C6.77863437 21.36045847 4.56432971 24.13277421 0 26 C-3.96622056 26.58042252 -7.08078305 26.36768678 -10.8125 24.875 C-14.05192043 22.09835391 -15.66392097 19.30651501 -16.28515625 15.04296875 C-16.49201794 10.33911369 -15.6844024 6.9803208 -13 3 C-9.03102903 -0.40197511 -5.02128476 -0.76388713 0 0 Z " fill="#F9E394" transform="translate(275,290)"/>
<path d="M0 0 C3.375 0.875 3.375 0.875 5.375 2.875 C5.65422749 5.80688861 5.84643881 8.02890647 5.375 10.875 C3.30244557 13.33136081 2.01130966 13.76364581 -1.125 14.3125 C-4.52334723 13.71778924 -5.63741034 12.67234842 -7.625 9.875 C-8.23475382 6.21647708 -8.07043026 4.56987121 -6.0625 1.4375 C-3.625 -0.125 -3.625 -0.125 0 0 Z " fill="#3F566D" transform="translate(347.625,261.125)"/>
<path d="M0 0 C2.0625 0.4375 2.0625 0.4375 4 1 C4.6875 2.8125 4.6875 2.8125 5 5 C3.5625 6.75 3.5625 6.75 2 8 C0.68 7.34 -0.64 6.68 -2 6 C-1.125 1.125 -1.125 1.125 0 0 Z " fill="#C8BD89" transform="translate(262,337)"/>
<path d="M0 0 C0.99 0.33 1.98 0.66 3 1 C3.33 2.98 3.66 4.96 4 7 C2.1875 7.6875 2.1875 7.6875 0 8 C-1.75 6.5625 -1.75 6.5625 -3 5 C-1.125 1.125 -1.125 1.125 0 0 Z " fill="#C9BE88" transform="translate(224,337)"/>
<path d="M0 0 C2.475 0.495 2.475 0.495 5 1 C6.125 4.75 6.125 4.75 5 7 C3.35 7 1.7 7 0 7 C0 4.69 0 2.38 0 0 Z " fill="#BDB689" transform="translate(403,337)"/>
<path d="M0 0 C0.99 0.33 1.98 0.66 3 1 C3 2.98 3 4.96 3 7 C2.01 7.33 1.02 7.66 0 8 C-0.99 7.01 -1.98 6.02 -3 5 C-1.125 1.125 -1.125 1.125 0 0 Z " fill="#C8BD86" transform="translate(177,337)"/>
<path d="M0 0 C0.93423645 3.01031744 1.04449911 3.86650268 0 7 C1.65 7 3.3 7 5 7 C5 7.66 5 8.32 5 9 C3.35 8.67 1.7 8.34 0 8 C0 9.65 0 11.3 0 13 C-0.33 13 -0.66 13 -1 13 C-1 11.35 -1 9.7 -1 8 C-1.94875 8.20625 -2.8975 8.4125 -3.875 8.625 C-4.90625 8.74875 -5.9375 8.8725 -7 9 C-7.66 8.34 -8.32 7.68 -9 7 C-6.36 7 -3.72 7 -1 7 C-0.67 4.69 -0.34 2.38 0 0 Z " fill="#B6B189" transform="translate(328,155)"/>
<path d="M0 0 C1.65 0 3.3 0 5 0 C5.38218767 1.65614657 5.71395102 3.32457024 6 5 C5 6 5 6 2.4375 6.0625 C1.2309375 6.0315625 1.2309375 6.0315625 0 6 C0 4.02 0 2.04 0 0 Z " fill="#C1B988" transform="translate(272,338)"/>
<path d="M0 0 C1.32 0.33 2.64 0.66 4 1 C4.33 2.98 4.66 4.96 5 7 C3.35 6.67 1.7 6.34 0 6 C0 4.02 0 2.04 0 0 Z " fill="#B8B289" transform="translate(476,338)"/>
<path d="M0 0 C0.99 0 1.98 0 3 0 C3.33 1.65 3.66 3.3 4 5 C2.68 5.33 1.36 5.66 0 6 C0 4 0 2 0 0 Z " fill="#F2DE94" transform="translate(381,337)"/>
<path d="M0 0 C1.32 0 2.64 0 4 0 C4 1.98 4 3.96 4 6 C2.66666667 6 1.33333333 6 0 6 C0 4.02 0 2.04 0 0 Z " fill="#A09F80" transform="translate(250,338)"/>
<path d="M0 0 C0.33 1.32 0.66 2.64 1 4 C2.98 4 4.96 4 7 4 C7 4.33 7 4.66 7 5 C5.02 5 3.04 5 1 5 C1 6.98 1 8.96 1 11 C0.67 11 0.34 11 0 11 C0 9.02 0 7.04 0 5 C-0.99 4.67 -1.98 4.34 -3 4 C-2.01 4 -1.02 4 0 4 C0 2.68 0 1.36 0 0 Z " fill="#C8BF8C" transform="translate(289,120)"/>
<path d="M0 0 C0.66 0 1.32 0 2 0 C2.33 1.65 2.66 3.3 3 5 C1.35 5.33 -0.3 5.66 -2 6 C-1.34 4.02 -0.68 2.04 0 0 Z " fill="#A9A783" transform="translate(333,338)"/>
<path d="M0 0 C1.5 1.375 1.5 1.375 3 3 C3 3.66 3 4.32 3 5 C1.35 5.33 -0.3 5.66 -2 6 C-1.34 4.02 -0.68 2.04 0 0 Z " fill="#A7A584" transform="translate(445,338)"/>
<path d="M0 0 C1.32 0.33 2.64 0.66 4 1 C3.34 2.65 2.68 4.3 2 6 C1.34 6 0.68 6 0 6 C0 4.02 0 2.04 0 0 Z " fill="#B8B285" transform="translate(240,338)"/>
</svg>
